<?xml version="1.0" encoding="iso-8859-1"?>
<!-- Generator: Adobe Illustrator 19.0.0, SVG Export Plug-In . SVG Version: 6.00 Build 0)  -->
<svg version="1.1" id="Layer_1" xmlns="http://www.w3.org/2000/svg" xmlns:xlink="http://www.w3.org/1999/xlink" x="0px" y="0px"
	 viewBox="0 0 503.467 503.467" style="enable-background:new 0 0 503.467 503.467;" xml:space="preserve">
<g transform="translate(1 1)">
	<path style="fill:#FFD0A1;" d="M55.32,300.227c0-5.973,2.56-11.947,6.827-17.067c10.24-10.24,25.6-8.533,34.987,0.853
		l59.733,59.733c0,0,17.067,14.507,17.067,42.667v76.8h-68.267c0-25.6-17.067-42.667-17.067-42.667L20.333,352.28
		c0,0-17.067-14.507-17.067-42.667v-128c0-14.507,11.093-25.6,25.6-25.6s25.6,11.093,25.6,25.6L55.32,300.227L55.32,300.227z
		 M447,300.227v-117.76c0-14.507,11.093-25.6,25.6-25.6c14.507,0,25.6,11.093,25.6,25.6v128c0,28.16-17.067,42.667-17.067,42.667
		L412.867,421.4c0,0-17.067,17.067-17.067,42.667h-68.267v-76.8c0-28.16,17.067-42.667,17.067-42.667l59.733-59.733
		c10.24-10.24,24.747-11.093,34.987-0.853C444.44,288.28,446.147,294.253,447,300.227L447,300.227z"/>
	<path style="fill:#FF7474;" d="M247.32,31.427c15.36-17.067,38.4-28.16,63.147-28.16c46.933,0,85.333,38.4,85.333,85.333
		c0,51.2-51.2,136.533-145.067,187.733C156.867,225.133,105.667,139.8,105.667,88.6c0-46.933,38.4-85.333,85.333-85.333
		c11.947,0,23.893,2.56,34.133,6.827c0,0,15.36,8.533,21.333,19.627L247.32,31.427z"/>
	<path style="fill:#AAB1BA;" d="M191,464.067V498.2H54.467v-34.133h51.2h68.267H191z M447,464.067V498.2H310.467v-34.133h17.067
		H395.8H447z"/>
</g>
<path style="fill:#51565F;" d="M448,503.467c-2.56,0-4.267-1.707-4.267-4.267v-29.867h-128V499.2c0,2.56-1.707,4.267-4.267,4.267
	s-4.267-1.707-4.267-4.267v-34.133c0-2.56,1.707-4.267,4.267-4.267H448c2.56,0,4.267,1.707,4.267,4.267V499.2
	C452.267,501.76,450.56,503.467,448,503.467z M192,503.467c-2.56,0-4.267-1.707-4.267-4.267v-29.867h-128V499.2
	c0,2.56-1.707,4.267-4.267,4.267c-2.56,0-4.267-1.707-4.267-4.267v-34.133c0-2.56,1.707-4.267,4.267-4.267H192
	c2.56,0,4.267,1.707,4.267,4.267V499.2C196.267,501.76,194.56,503.467,192,503.467z M328.533,435.2c-2.56,0-4.267-1.707-4.267-4.267
	v-42.667c0-29.867,17.92-45.227,18.773-46.08l59.733-59.733c11.947-11.947,29.867-12.8,40.96-0.853
	c5.12,5.12,8.533,11.947,8.533,19.627c0,7.68-3.413,15.36-9.387,21.333l-42.667,42.667c-1.707,1.707-4.267,1.707-5.973,0
	c-1.707-1.707-1.707-4.267,0-5.973l42.667-42.667c4.267-4.267,6.827-10.24,6.827-15.36c0-5.12-1.707-10.24-5.973-13.653
	c-7.68-7.68-20.48-7.68-29.013,0.853l-59.733,59.733c0,0-16.213,14.507-16.213,39.253v42.667
	C332.8,433.493,331.093,435.2,328.533,435.2z M174.933,435.2c-2.56,0-4.267-1.707-4.267-4.267v-42.667
	c0-25.6-15.36-39.253-15.36-39.253L95.573,289.28c-8.533-8.533-21.333-9.387-29.013-0.853c-4.267,4.267-5.973,9.387-5.973,14.507
	s2.56,10.24,6.827,14.507l42.667,42.667c1.707,1.707,1.707,4.267,0,5.973c-1.707,1.707-4.267,1.707-5.973,0L61.44,323.414
	c-5.973-5.973-8.533-12.8-9.387-20.48c0-7.68,2.56-15.36,8.533-20.48c11.093-11.093,29.013-11.093,40.96,0.853l59.733,59.733
	c0.853,0.853,17.92,16.213,17.92,46.08v42.667C179.2,433.493,177.493,435.2,174.933,435.2z M413.867,426.667
	c-0.853,0-2.56,0-3.413-0.853c-1.707-1.707-1.707-4.267,0-5.973l68.267-68.267c0.853-0.853,16.213-13.653,16.213-39.253v-128
	c0-11.947-9.387-21.333-21.333-21.333c-11.947,0-21.333,9.387-21.333,21.333v67.413c0,2.56-1.707,4.267-4.267,4.267
	s-4.267-1.707-4.267-4.267v-68.266c0-16.213,13.653-29.867,29.867-29.867c16.213,0,29.867,13.653,29.867,29.867v128
	c0,29.867-17.92,45.227-18.773,46.08l-68.267,68.267C416.427,426.667,414.72,426.667,413.867,426.667z M89.6,426.667
	c-0.853,0-2.56,0-3.413-0.853L17.92,357.547c-0.853,0-17.92-15.36-17.92-46.08v-128C0,167.253,13.653,153.6,29.867,153.6
	s29.867,13.653,29.867,29.867v67.413c0,2.56-1.707,4.267-4.267,4.267c-2.56,0-4.267-1.707-4.267-4.267v-67.413
	c0-11.947-9.387-21.333-21.333-21.333S8.533,171.52,8.533,183.467v128c0,25.6,14.507,39.253,15.36,39.253l68.267,68.267
	c1.707,1.707,1.707,4.267,0,5.973C92.16,426.667,90.453,426.667,89.6,426.667z M251.733,281.6c-0.853,0-1.707,0-1.707-0.853
	C157.867,230.4,102.4,144.213,102.4,89.6C102.4,40.107,142.507,0,192,0c12.8,0,24.747,2.56,35.84,7.68
	c2.56,0.853,3.413,3.413,2.56,5.973c-0.853,2.56-3.413,3.413-5.973,2.56c-10.24-4.267-21.333-6.827-32.427-6.827
	c-44.373,0-81.067,36.693-81.067,81.067c0,52.053,52.907,133.973,140.8,182.613c87.893-48.64,140.8-131.413,140.8-182.613
	c0-44.373-36.693-81.067-81.067-81.067c-31.573,0-60.587,18.773-73.387,46.933c-0.853,2.56-3.413,3.413-5.973,1.707
	c-2.56-0.853-3.413-3.413-1.707-5.973C244.907,20.48,277.333,0,311.467,0c49.493,0,89.6,40.107,89.6,89.6
	c0,54.613-55.467,140.8-147.627,191.147C253.44,281.6,252.587,281.6,251.733,281.6z M360.107,76.8c-1.707,0-3.413-0.853-4.267-2.56
	c-5.12-13.653-15.36-23.893-28.16-29.013c-2.56-0.853-3.413-3.413-2.56-5.12c0.853-2.56,3.413-3.413,5.12-2.56
	c16.213,5.973,28.16,17.92,34.133,34.133c0.853,2.56,0,4.267-2.56,5.12C360.96,76.8,360.107,76.8,360.107,76.8z"/>
<g>
</g>
<g>
</g>
<g>
</g>
<g>
</g>
<g>
</g>
<g>
</g>
<g>
</g>
<g>
</g>
<g>
</g>
<g>
</g>
<g>
</g>
<g>
</g>
<g>
</g>
<g>
</g>
<g>
</g>
</svg>
